<svg width="433" height="75" viewBox="0 0 433 75" fill="none" xmlns="http://www.w3.org/2000/svg">
<path d="M20.1562 18.375L23.6562 1.25H27.5781L22.3281 24H18.5469L14.2188 7.39062L9.79688 24H6L0.75 1.25H4.67188L8.20312 18.3438L12.5469 1.25H15.8594L20.1562 18.375ZM37.0469 24.3125C34.6406 24.3125 32.6875 23.5573 31.1875 22.0469C29.6979 20.526 28.9531 18.5052 28.9531 15.9844V15.5156C28.9531 13.8281 29.276 12.3229 29.9219 11C30.5781 9.66667 31.4948 8.63021 32.6719 7.89062C33.849 7.15104 35.1615 6.78125 36.6094 6.78125C38.9115 6.78125 40.6875 7.51562 41.9375 8.98438C43.1979 10.4531 43.8281 12.5312 43.8281 15.2188V16.75H32.7812C32.8958 18.1458 33.3594 19.25 34.1719 20.0625C34.9948 20.875 36.026 21.2812 37.2656 21.2812C39.0052 21.2812 40.4219 20.5781 41.5156 19.1719L43.5625 21.125C42.8854 22.1354 41.9792 22.9219 40.8438 23.4844C39.7188 24.0365 38.4531 24.3125 37.0469 24.3125ZM36.5938 9.82812C35.5521 9.82812 34.7083 10.1927 34.0625 10.9219C33.4271 11.651 33.0208 12.6667 32.8438 13.9688H40.0781V13.6875C39.9948 12.4167 39.6562 11.4583 39.0625 10.8125C38.4688 10.1562 37.6458 9.82812 36.5938 9.82812ZM50.8281 24H47.0312V0H50.8281V24ZM61.9219 21.2812C62.8698 21.2812 63.6562 21.0052 64.2812 20.4531C64.9062 19.901 65.2396 19.2188 65.2812 18.4062H68.8594C68.8177 19.4583 68.4896 20.4427 67.875 21.3594C67.2604 22.2656 66.4271 22.9844 65.375 23.5156C64.3229 24.0469 63.1875 24.3125 61.9688 24.3125C59.6042 24.3125 57.7292 23.5469 56.3438 22.0156C54.9583 20.4844 54.2656 18.3698 54.2656 15.6719V15.2812C54.2656 12.7083 54.9531 10.651 56.3281 9.10938C57.7031 7.55729 59.5781 6.78125 61.9531 6.78125C63.9635 6.78125 65.599 7.36979 66.8594 8.54688C68.1302 9.71354 68.7969 11.25 68.8594 13.1562H65.2812C65.2396 12.1875 64.9062 11.3906 64.2812 10.7656C63.6667 10.1406 62.8802 9.82812 61.9219 9.82812C60.6927 9.82812 59.7448 10.276 59.0781 11.1719C58.4115 12.0573 58.0729 13.4062 58.0625 15.2188V15.8281C58.0625 17.6615 58.3906 19.0312 59.0469 19.9375C59.7135 20.8333 60.6719 21.2812 61.9219 21.2812ZM71.0156 15.3906C71.0156 13.7344 71.3438 12.2448 72 10.9219C72.6562 9.58854 73.5781 8.56771 74.7656 7.85938C75.9531 7.14062 77.3177 6.78125 78.8594 6.78125C81.1406 6.78125 82.9896 7.51562 84.4062 8.98438C85.8333 10.4531 86.6042 12.401 86.7188 14.8281L86.7344 15.7188C86.7344 17.3854 86.4115 18.875 85.7656 20.1875C85.1302 21.5 84.2135 22.5156 83.0156 23.2344C81.8281 23.9531 80.4531 24.3125 78.8906 24.3125C76.5052 24.3125 74.5938 23.5208 73.1562 21.9375C71.7292 20.3438 71.0156 18.224 71.0156 15.5781V15.3906ZM74.8125 15.7188C74.8125 17.4583 75.1719 18.8229 75.8906 19.8125C76.6094 20.7917 77.6094 21.2812 78.8906 21.2812C80.1719 21.2812 81.1667 20.7812 81.875 19.7812C82.5938 18.7812 82.9531 17.3177 82.9531 15.3906C82.9531 13.6823 82.5833 12.3281 81.8438 11.3281C81.1146 10.3281 80.1198 9.82812 78.8594 9.82812C77.6198 9.82812 76.6354 10.3229 75.9062 11.3125C75.1771 12.2917 74.8125 13.7604 74.8125 15.7188ZM93.5156 7.09375L93.625 8.85938C94.8125 7.47396 96.4375 6.78125 98.5 6.78125C100.76 6.78125 102.307 7.64583 103.141 9.375C104.37 7.64583 106.099 6.78125 108.328 6.78125C110.193 6.78125 111.578 7.29688 112.484 8.32812C113.401 9.35938 113.87 10.8802 113.891 12.8906V24H110.094V13C110.094 11.9271 109.859 11.1406 109.391 10.6406C108.922 10.1406 108.146 9.89062 107.062 9.89062C106.198 9.89062 105.49 10.125 104.938 10.5938C104.396 11.0521 104.016 11.6562 103.797 12.4062L103.812 24H100.016V12.875C99.9635 10.8854 98.9479 9.89062 96.9688 9.89062C95.4479 9.89062 94.3698 10.5104 93.7344 11.75V24H89.9375V7.09375H93.5156ZM125.234 24.3125C122.828 24.3125 120.875 23.5573 119.375 22.0469C117.885 20.526 117.141 18.5052 117.141 15.9844V15.5156C117.141 13.8281 117.464 12.3229 118.109 11C118.766 9.66667 119.682 8.63021 120.859 7.89062C122.036 7.15104 123.349 6.78125 124.797 6.78125C127.099 6.78125 128.875 7.51562 130.125 8.98438C131.385 10.4531 132.016 12.5312 132.016 15.2188V16.75H120.969C121.083 18.1458 121.547 19.25 122.359 20.0625C123.182 20.875 124.214 21.2812 125.453 21.2812C127.193 21.2812 128.609 20.5781 129.703 19.1719L131.75 21.125C131.073 22.1354 130.167 22.9219 129.031 23.4844C127.906 24.0365 126.641 24.3125 125.234 24.3125ZM124.781 9.82812C123.74 9.82812 122.896 10.1927 122.25 10.9219C121.615 11.651 121.208 12.6667 121.031 13.9688H128.266V13.6875C128.182 12.4167 127.844 11.4583 127.25 10.8125C126.656 10.1562 125.833 9.82812 124.781 9.82812ZM147.703 2.98438V7.09375H150.688V9.90625H147.703V19.3438C147.703 19.9896 147.828 20.4583 148.078 20.75C148.339 21.0312 148.797 21.1719 149.453 21.1719C149.891 21.1719 150.333 21.1198 150.781 21.0156V23.9531C149.917 24.1927 149.083 24.3125 148.281 24.3125C145.365 24.3125 143.906 22.7031 143.906 19.4844V9.90625H141.125V7.09375H143.906V2.98438H147.703ZM152.422 15.3906C152.422 13.7344 152.75 12.2448 153.406 10.9219C154.062 9.58854 154.984 8.56771 156.172 7.85938C157.359 7.14062 158.724 6.78125 160.266 6.78125C162.547 6.78125 164.396 7.51562 165.812 8.98438C167.24 10.4531 168.01 12.401 168.125 14.8281L168.141 15.7188C168.141 17.3854 167.818 18.875 167.172 20.1875C166.536 21.5 165.62 22.5156 164.422 23.2344C163.234 23.9531 161.859 24.3125 160.297 24.3125C157.911 24.3125 156 23.5208 154.562 21.9375C153.135 20.3438 152.422 18.224 152.422 15.5781V15.3906ZM156.219 15.7188C156.219 17.4583 156.578 18.8229 157.297 19.8125C158.016 20.7917 159.016 21.2812 160.297 21.2812C161.578 21.2812 162.573 20.7812 163.281 19.7812C164 18.7812 164.359 17.3177 164.359 15.3906C164.359 13.6823 163.99 12.3281 163.25 11.3281C162.521 10.3281 161.526 9.82812 160.266 9.82812C159.026 9.82812 158.042 10.3229 157.312 11.3125C156.583 12.2917 156.219 13.7604 156.219 15.7188Z" fill="#1F2E35"/>
<path d="M179.688 24V1.25H186.406C188.417 1.25 190.198 1.69792 191.75 2.59375C193.312 3.48958 194.521 4.76042 195.375 6.40625C196.229 8.05208 196.656 9.9375 196.656 12.0625V13.2031C196.656 15.3594 196.224 17.2552 195.359 18.8906C194.505 20.526 193.281 21.7865 191.688 22.6719C190.104 23.5573 188.286 24 186.234 24H179.688ZM183.641 4.4375V20.8438H186.219C188.292 20.8438 189.88 20.1979 190.984 18.9062C192.099 17.6042 192.667 15.7396 192.688 13.3125V12.0469C192.688 9.57812 192.151 7.69271 191.078 6.39062C190.005 5.08854 188.448 4.4375 186.406 4.4375H183.641ZM215.078 18.7656L217.766 7.09375H221.469L216.859 24H213.734L210.109 12.3906L206.547 24H203.422L198.797 7.09375H202.5L205.234 18.6406L208.703 7.09375H211.562L215.078 18.7656ZM228.047 24H224.25V7.09375H228.047V24ZM224.016 2.70312C224.016 2.11979 224.198 1.63542 224.562 1.25C224.938 0.864583 225.469 0.671875 226.156 0.671875C226.844 0.671875 227.375 0.864583 227.75 1.25C228.125 1.63542 228.312 2.11979 228.312 2.70312C228.312 3.27604 228.125 3.75521 227.75 4.14062C227.375 4.51562 226.844 4.70312 226.156 4.70312C225.469 4.70312 224.938 4.51562 224.562 4.14062C224.198 3.75521 224.016 3.27604 224.016 2.70312ZM231.484 15.4219C231.484 12.8177 232.089 10.7292 233.297 9.15625C234.505 7.57292 236.125 6.78125 238.156 6.78125C239.948 6.78125 241.396 7.40625 242.5 8.65625V0H246.297V24H242.859L242.672 22.25C241.536 23.625 240.021 24.3125 238.125 24.3125C236.146 24.3125 234.542 23.5156 233.312 21.9219C232.094 20.3281 231.484 18.1615 231.484 15.4219ZM235.281 15.75C235.281 17.4688 235.609 18.8125 236.266 19.7812C236.932 20.7396 237.875 21.2188 239.094 21.2188C240.646 21.2188 241.781 20.526 242.5 19.1406V11.9219C241.802 10.5677 240.677 9.89062 239.125 9.89062C237.896 9.89062 236.948 10.3802 236.281 11.3594C235.615 12.3281 235.281 13.7917 235.281 15.75ZM260.359 24C260.193 23.6771 260.047 23.151 259.922 22.4219C258.714 23.6823 257.234 24.3125 255.484 24.3125C253.786 24.3125 252.401 23.8281 251.328 22.8594C250.255 21.8906 249.719 20.6927 249.719 19.2656C249.719 17.4635 250.385 16.0833 251.719 15.125C253.062 14.1562 254.979 13.6719 257.469 13.6719H259.797V12.5625C259.797 11.6875 259.552 10.9896 259.062 10.4688C258.573 9.9375 257.828 9.67188 256.828 9.67188C255.964 9.67188 255.255 9.89062 254.703 10.3281C254.151 10.7552 253.875 11.3021 253.875 11.9688H250.078C250.078 11.0417 250.385 10.1771 251 9.375C251.615 8.5625 252.448 7.92708 253.5 7.46875C254.562 7.01042 255.745 6.78125 257.047 6.78125C259.026 6.78125 260.604 7.28125 261.781 8.28125C262.958 9.27083 263.562 10.6667 263.594 12.4688V20.0938C263.594 21.6146 263.807 22.8281 264.234 23.7344V24H260.359ZM256.188 21.2656C256.938 21.2656 257.641 21.0833 258.297 20.7188C258.964 20.3542 259.464 19.8646 259.797 19.25V16.0625H257.75C256.344 16.0625 255.286 16.3073 254.578 16.7969C253.87 17.2865 253.516 17.9792 253.516 18.875C253.516 19.6042 253.755 20.1875 254.234 20.625C254.724 21.0521 255.375 21.2656 256.188 21.2656ZM277.047 19.4062C277.047 18.7292 276.766 18.2135 276.203 17.8594C275.651 17.5052 274.729 17.1927 273.438 16.9219C272.146 16.651 271.068 16.3073 270.203 15.8906C268.307 14.974 267.359 13.6458 267.359 11.9062C267.359 10.4479 267.974 9.22917 269.203 8.25C270.432 7.27083 271.995 6.78125 273.891 6.78125C275.911 6.78125 277.542 7.28125 278.781 8.28125C280.031 9.28125 280.656 10.5781 280.656 12.1719H276.859C276.859 11.4427 276.589 10.8385 276.047 10.3594C275.505 9.86979 274.786 9.625 273.891 9.625C273.057 9.625 272.375 9.81771 271.844 10.2031C271.323 10.5885 271.062 11.1042 271.062 11.75C271.062 12.3333 271.307 12.7865 271.797 13.1094C272.286 13.4323 273.276 13.7604 274.766 14.0938C276.255 14.4167 277.422 14.8073 278.266 15.2656C279.12 15.7135 279.75 16.2552 280.156 16.8906C280.573 17.526 280.781 18.2969 280.781 19.2031C280.781 20.724 280.151 21.9583 278.891 22.9062C277.63 23.8438 275.979 24.3125 273.938 24.3125C272.552 24.3125 271.318 24.0625 270.234 23.5625C269.151 23.0625 268.307 22.375 267.703 21.5C267.099 20.625 266.797 19.6823 266.797 18.6719H270.484C270.536 19.5677 270.875 20.2604 271.5 20.75C272.125 21.2292 272.953 21.4688 273.984 21.4688C274.984 21.4688 275.745 21.2812 276.266 20.9062C276.786 20.5208 277.047 20.0208 277.047 19.4062ZM294.203 24C294.036 23.6771 293.891 23.151 293.766 22.4219C292.557 23.6823 291.078 24.3125 289.328 24.3125C287.63 24.3125 286.245 23.8281 285.172 22.8594C284.099 21.8906 283.562 20.6927 283.562 19.2656C283.562 17.4635 284.229 16.0833 285.562 15.125C286.906 14.1562 288.823 13.6719 291.312 13.6719H293.641V12.5625C293.641 11.6875 293.396 10.9896 292.906 10.4688C292.417 9.9375 291.672 9.67188 290.672 9.67188C289.807 9.67188 289.099 9.89062 288.547 10.3281C287.995 10.7552 287.719 11.3021 287.719 11.9688H283.922C283.922 11.0417 284.229 10.1771 284.844 9.375C285.458 8.5625 286.292 7.92708 287.344 7.46875C288.406 7.01042 289.589 6.78125 290.891 6.78125C292.87 6.78125 294.448 7.28125 295.625 8.28125C296.802 9.27083 297.406 10.6667 297.438 12.4688V20.0938C297.438 21.6146 297.651 22.8281 298.078 23.7344V24H294.203ZM290.031 21.2656C290.781 21.2656 291.484 21.0833 292.141 20.7188C292.807 20.3542 293.307 19.8646 293.641 19.25V16.0625H291.594C290.188 16.0625 289.13 16.3073 288.422 16.7969C287.714 17.2865 287.359 17.9792 287.359 18.875C287.359 19.6042 287.599 20.1875 288.078 20.625C288.568 21.0521 289.219 21.2656 290.031 21.2656ZM321.641 18.1406C321.641 17.1406 321.286 16.3698 320.578 15.8281C319.88 15.2865 318.615 14.7396 316.781 14.1875C314.948 13.6354 313.49 13.0208 312.406 12.3438C310.333 11.0417 309.297 9.34375 309.297 7.25C309.297 5.41667 310.042 3.90625 311.531 2.71875C313.031 1.53125 314.974 0.9375 317.359 0.9375C318.943 0.9375 320.354 1.22917 321.594 1.8125C322.833 2.39583 323.807 3.22917 324.516 4.3125C325.224 5.38542 325.578 6.57812 325.578 7.89062H321.641C321.641 6.70312 321.266 5.77604 320.516 5.10938C319.776 4.43229 318.714 4.09375 317.328 4.09375C316.036 4.09375 315.031 4.36979 314.312 4.92188C313.604 5.47396 313.25 6.24479 313.25 7.23438C313.25 8.06771 313.635 8.76562 314.406 9.32812C315.177 9.88021 316.448 10.4219 318.219 10.9531C319.99 11.474 321.411 12.0729 322.484 12.75C323.557 13.4167 324.344 14.1875 324.844 15.0625C325.344 15.9271 325.594 16.9427 325.594 18.1094C325.594 20.0052 324.865 21.5156 323.406 22.6406C321.958 23.7552 319.99 24.3125 317.5 24.3125C315.854 24.3125 314.339 24.0104 312.953 23.4062C311.578 22.7917 310.505 21.9479 309.734 20.875C308.974 19.8021 308.594 18.5521 308.594 17.125H312.547C312.547 18.4167 312.974 19.4167 313.828 20.125C314.682 20.8333 315.906 21.1875 317.5 21.1875C318.875 21.1875 319.906 20.9115 320.594 20.3594C321.292 19.7969 321.641 19.0573 321.641 18.1406ZM338.797 24C338.63 23.6771 338.484 23.151 338.359 22.4219C337.151 23.6823 335.672 24.3125 333.922 24.3125C332.224 24.3125 330.839 23.8281 329.766 22.8594C328.693 21.8906 328.156 20.6927 328.156 19.2656C328.156 17.4635 328.823 16.0833 330.156 15.125C331.5 14.1562 333.417 13.6719 335.906 13.6719H338.234V12.5625C338.234 11.6875 337.99 10.9896 337.5 10.4688C337.01 9.9375 336.266 9.67188 335.266 9.67188C334.401 9.67188 333.693 9.89062 333.141 10.3281C332.589 10.7552 332.312 11.3021 332.312 11.9688H328.516C328.516 11.0417 328.823 10.1771 329.438 9.375C330.052 8.5625 330.885 7.92708 331.938 7.46875C333 7.01042 334.182 6.78125 335.484 6.78125C337.464 6.78125 339.042 7.28125 340.219 8.28125C341.396 9.27083 342 10.6667 342.031 12.4688V20.0938C342.031 21.6146 342.245 22.8281 342.672 23.7344V24H338.797ZM334.625 21.2656C335.375 21.2656 336.078 21.0833 336.734 20.7188C337.401 20.3542 337.901 19.8646 338.234 19.25V16.0625H336.188C334.781 16.0625 333.724 16.3073 333.016 16.7969C332.307 17.2865 331.953 17.9792 331.953 18.875C331.953 19.6042 332.193 20.1875 332.672 20.625C333.161 21.0521 333.812 21.2656 334.625 21.2656ZM349.578 7.09375L349.688 8.85938C350.875 7.47396 352.5 6.78125 354.562 6.78125C356.823 6.78125 358.37 7.64583 359.203 9.375C360.432 7.64583 362.161 6.78125 364.391 6.78125C366.255 6.78125 367.641 7.29688 368.547 8.32812C369.464 9.35938 369.932 10.8802 369.953 12.8906V24H366.156V13C366.156 11.9271 365.922 11.1406 365.453 10.6406C364.984 10.1406 364.208 9.89062 363.125 9.89062C362.26 9.89062 361.552 10.125 361 10.5938C360.458 11.0521 360.078 11.6562 359.859 12.4062L359.875 24H356.078V12.875C356.026 10.8854 355.01 9.89062 353.031 9.89062C351.51 9.89062 350.432 10.5104 349.797 11.75V24H346V7.09375H349.578ZM383.328 19.4062C383.328 18.7292 383.047 18.2135 382.484 17.8594C381.932 17.5052 381.01 17.1927 379.719 16.9219C378.427 16.651 377.349 16.3073 376.484 15.8906C374.589 14.974 373.641 13.6458 373.641 11.9062C373.641 10.4479 374.255 9.22917 375.484 8.25C376.714 7.27083 378.276 6.78125 380.172 6.78125C382.193 6.78125 383.823 7.28125 385.062 8.28125C386.312 9.28125 386.938 10.5781 386.938 12.1719H383.141C383.141 11.4427 382.87 10.8385 382.328 10.3594C381.786 9.86979 381.068 9.625 380.172 9.625C379.339 9.625 378.656 9.81771 378.125 10.2031C377.604 10.5885 377.344 11.1042 377.344 11.75C377.344 12.3333 377.589 12.7865 378.078 13.1094C378.568 13.4323 379.557 13.7604 381.047 14.0938C382.536 14.4167 383.703 14.8073 384.547 15.2656C385.401 15.7135 386.031 16.2552 386.438 16.8906C386.854 17.526 387.062 18.2969 387.062 19.2031C387.062 20.724 386.432 21.9583 385.172 22.9062C383.911 23.8438 382.26 24.3125 380.219 24.3125C378.833 24.3125 377.599 24.0625 376.516 23.5625C375.432 23.0625 374.589 22.375 373.984 21.5C373.38 20.625 373.078 19.6823 373.078 18.6719H376.766C376.818 19.5677 377.156 20.2604 377.781 20.75C378.406 21.2292 379.234 21.4688 380.266 21.4688C381.266 21.4688 382.026 21.2812 382.547 20.9062C383.068 20.5208 383.328 20.0208 383.328 19.4062ZM400.484 24C400.318 23.6771 400.172 23.151 400.047 22.4219C398.839 23.6823 397.359 24.3125 395.609 24.3125C393.911 24.3125 392.526 23.8281 391.453 22.8594C390.38 21.8906 389.844 20.6927 389.844 19.2656C389.844 17.4635 390.51 16.0833 391.844 15.125C393.188 14.1562 395.104 13.6719 397.594 13.6719H399.922V12.5625C399.922 11.6875 399.677 10.9896 399.188 10.4688C398.698 9.9375 397.953 9.67188 396.953 9.67188C396.089 9.67188 395.38 9.89062 394.828 10.3281C394.276 10.7552 394 11.3021 394 11.9688H390.203C390.203 11.0417 390.51 10.1771 391.125 9.375C391.74 8.5625 392.573 7.92708 393.625 7.46875C394.688 7.01042 395.87 6.78125 397.172 6.78125C399.151 6.78125 400.729 7.28125 401.906 8.28125C403.083 9.27083 403.688 10.6667 403.719 12.4688V20.0938C403.719 21.6146 403.932 22.8281 404.359 23.7344V24H400.484ZM396.312 21.2656C397.062 21.2656 397.766 21.0833 398.422 20.7188C399.089 20.3542 399.589 19.8646 399.922 19.25V16.0625H397.875C396.469 16.0625 395.411 16.3073 394.703 16.7969C393.995 17.2865 393.641 17.9792 393.641 18.875C393.641 19.6042 393.88 20.1875 394.359 20.625C394.849 21.0521 395.5 21.2656 396.312 21.2656ZM416.547 10.5625C416.047 10.4792 415.531 10.4375 415 10.4375C413.26 10.4375 412.089 11.1042 411.484 12.4375V24H407.688V7.09375H411.312L411.406 8.98438C412.323 7.51562 413.594 6.78125 415.219 6.78125C415.76 6.78125 416.208 6.85417 416.562 7L416.547 10.5625ZM428.578 24C428.411 23.6771 428.266 23.151 428.141 22.4219C426.932 23.6823 425.453 24.3125 423.703 24.3125C422.005 24.3125 420.62 23.8281 419.547 22.8594C418.474 21.8906 417.938 20.6927 417.938 19.2656C417.938 17.4635 418.604 16.0833 419.938 15.125C421.281 14.1562 423.198 13.6719 425.688 13.6719H428.016V12.5625C428.016 11.6875 427.771 10.9896 427.281 10.4688C426.792 9.9375 426.047 9.67188 425.047 9.67188C424.182 9.67188 423.474 9.89062 422.922 10.3281C422.37 10.7552 422.094 11.3021 422.094 11.9688H418.297C418.297 11.0417 418.604 10.1771 419.219 9.375C419.833 8.5625 420.667 7.92708 421.719 7.46875C422.781 7.01042 423.964 6.78125 425.266 6.78125C427.245 6.78125 428.823 7.28125 430 8.28125C431.177 9.27083 431.781 10.6667 431.812 12.4688V20.0938C431.812 21.6146 432.026 22.8281 432.453 23.7344V24H428.578ZM424.406 21.2656C425.156 21.2656 425.859 21.0833 426.516 20.7188C427.182 20.3542 427.682 19.8646 428.016 19.25V16.0625H425.969C424.562 16.0625 423.505 16.3073 422.797 16.7969C422.089 17.2865 421.734 17.9792 421.734 18.875C421.734 19.6042 421.974 20.1875 422.453 20.625C422.943 21.0521 423.594 21.2656 424.406 21.2656ZM6.48438 67H2.54688V44.25H6.48438V67ZM14.5 50.0938L14.6094 52.0469C15.8594 50.5365 17.5 49.7812 19.5312 49.7812C23.0521 49.7812 24.8438 51.7969 24.9062 55.8281V67H21.1094V56.0469C21.1094 54.974 20.875 54.1823 20.4062 53.6719C19.9479 53.151 19.1927 52.8906 18.1406 52.8906C16.6094 52.8906 15.4688 53.5833 14.7188 54.9688V67H10.9219V50.0938H14.5ZM28.0781 58.4219C28.0781 55.8177 28.6823 53.7292 29.8906 52.1562C31.099 50.5729 32.7188 49.7812 34.75 49.7812C36.5417 49.7812 37.9896 50.4062 39.0938 51.6562V43H42.8906V67H39.4531L39.2656 65.25C38.1302 66.625 36.6146 67.3125 34.7188 67.3125C32.7396 67.3125 31.1354 66.5156 29.9062 64.9219C28.6875 63.3281 28.0781 61.1615 28.0781 58.4219ZM31.875 58.75C31.875 60.4688 32.2031 61.8125 32.8594 62.7812C33.526 63.7396 34.4688 64.2188 35.6875 64.2188C37.2396 64.2188 38.375 63.526 39.0938 62.1406V54.9219C38.3958 53.5677 37.2708 52.8906 35.7188 52.8906C34.4896 52.8906 33.5417 53.3802 32.875 54.3594C32.2083 55.3281 31.875 56.7917 31.875 58.75ZM46.1406 58.3906C46.1406 56.7344 46.4688 55.2448 47.125 53.9219C47.7812 52.5885 48.7031 51.5677 49.8906 50.8594C51.0781 50.1406 52.4427 49.7812 53.9844 49.7812C56.2656 49.7812 58.1146 50.5156 59.5312 51.9844C60.9583 53.4531 61.7292 55.401 61.8438 57.8281L61.8594 58.7188C61.8594 60.3854 61.5365 61.875 60.8906 63.1875C60.2552 64.5 59.3385 65.5156 58.1406 66.2344C56.9531 66.9531 55.5781 67.3125 54.0156 67.3125C51.6302 67.3125 49.7188 66.5208 48.2812 64.9375C46.8542 63.3438 46.1406 61.224 46.1406 58.5781V58.3906ZM49.9375 58.7188C49.9375 60.4583 50.2969 61.8229 51.0156 62.8125C51.7344 63.7917 52.7344 64.2812 54.0156 64.2812C55.2969 64.2812 56.2917 63.7812 57 62.7812C57.7188 61.7812 58.0781 60.3177 58.0781 58.3906C58.0781 56.6823 57.7083 55.3281 56.9688 54.3281C56.2396 53.3281 55.2448 52.8281 53.9844 52.8281C52.7448 52.8281 51.7604 53.3229 51.0312 54.3125C50.3021 55.2917 49.9375 56.7604 49.9375 58.7188ZM68.5938 50.0938L68.7031 52.0469C69.9531 50.5365 71.5938 49.7812 73.625 49.7812C77.1458 49.7812 78.9375 51.7969 79 55.8281V67H75.2031V56.0469C75.2031 54.974 74.9688 54.1823 74.5 53.6719C74.0417 53.151 73.2865 52.8906 72.2344 52.8906C70.7031 52.8906 69.5625 53.5833 68.8125 54.9688V67H65.0156V50.0938H68.5938ZM90.3281 67.3125C87.9219 67.3125 85.9688 66.5573 84.4688 65.0469C82.9792 63.526 82.2344 61.5052 82.2344 58.9844V58.5156C82.2344 56.8281 82.5573 55.3229 83.2031 54C83.8594 52.6667 84.776 51.6302 85.9531 50.8906C87.1302 50.151 88.4427 49.7812 89.8906 49.7812C92.1927 49.7812 93.9688 50.5156 95.2188 51.9844C96.4792 53.4531 97.1094 55.5312 97.1094 58.2188V59.75H86.0625C86.1771 61.1458 86.6406 62.25 87.4531 63.0625C88.276 63.875 89.3073 64.2812 90.5469 64.2812C92.2865 64.2812 93.7031 63.5781 94.7969 62.1719L96.8438 64.125C96.1667 65.1354 95.2604 65.9219 94.125 66.4844C93 67.0365 91.7344 67.3125 90.3281 67.3125ZM89.875 52.8281C88.8333 52.8281 87.9896 53.1927 87.3438 53.9219C86.7083 54.651 86.3021 55.6667 86.125 56.9688H93.3594V56.6875C93.276 55.4167 92.9375 54.4583 92.3438 53.8125C91.75 53.1562 90.9271 52.8281 89.875 52.8281ZM109.547 62.4062C109.547 61.7292 109.266 61.2135 108.703 60.8594C108.151 60.5052 107.229 60.1927 105.938 59.9219C104.646 59.651 103.568 59.3073 102.703 58.8906C100.807 57.974 99.8594 56.6458 99.8594 54.9062C99.8594 53.4479 100.474 52.2292 101.703 51.25C102.932 50.2708 104.495 49.7812 106.391 49.7812C108.411 49.7812 110.042 50.2812 111.281 51.2812C112.531 52.2812 113.156 53.5781 113.156 55.1719H109.359C109.359 54.4427 109.089 53.8385 108.547 53.3594C108.005 52.8698 107.286 52.625 106.391 52.625C105.557 52.625 104.875 52.8177 104.344 53.2031C103.823 53.5885 103.562 54.1042 103.562 54.75C103.562 55.3333 103.807 55.7865 104.297 56.1094C104.786 56.4323 105.776 56.7604 107.266 57.0938C108.755 57.4167 109.922 57.8073 110.766 58.2656C111.62 58.7135 112.25 59.2552 112.656 59.8906C113.073 60.526 113.281 61.2969 113.281 62.2031C113.281 63.724 112.651 64.9583 111.391 65.9062C110.13 66.8438 108.479 67.3125 106.438 67.3125C105.052 67.3125 103.818 67.0625 102.734 66.5625C101.651 66.0625 100.807 65.375 100.203 64.5C99.599 63.625 99.2969 62.6823 99.2969 61.6719H102.984C103.036 62.5677 103.375 63.2604 104 63.75C104.625 64.2292 105.453 64.4688 106.484 64.4688C107.484 64.4688 108.245 64.2812 108.766 63.9062C109.286 63.5208 109.547 63.0208 109.547 62.4062ZM120.641 67H116.844V50.0938H120.641V67ZM116.609 45.7031C116.609 45.1198 116.792 44.6354 117.156 44.25C117.531 43.8646 118.062 43.6719 118.75 43.6719C119.438 43.6719 119.969 43.8646 120.344 44.25C120.719 44.6354 120.906 45.1198 120.906 45.7031C120.906 46.276 120.719 46.7552 120.344 47.1406C119.969 47.5156 119.438 47.7031 118.75 47.7031C118.062 47.7031 117.531 47.5156 117.156 47.1406C116.792 46.7552 116.609 46.276 116.609 45.7031ZM134.891 67C134.724 66.6771 134.578 66.151 134.453 65.4219C133.245 66.6823 131.766 67.3125 130.016 67.3125C128.318 67.3125 126.932 66.8281 125.859 65.8594C124.786 64.8906 124.25 63.6927 124.25 62.2656C124.25 60.4635 124.917 59.0833 126.25 58.125C127.594 57.1562 129.51 56.6719 132 56.6719H134.328V55.5625C134.328 54.6875 134.083 53.9896 133.594 53.4688C133.104 52.9375 132.359 52.6719 131.359 52.6719C130.495 52.6719 129.786 52.8906 129.234 53.3281C128.682 53.7552 128.406 54.3021 128.406 54.9688H124.609C124.609 54.0417 124.917 53.1771 125.531 52.375C126.146 51.5625 126.979 50.9271 128.031 50.4688C129.094 50.0104 130.276 49.7812 131.578 49.7812C133.557 49.7812 135.135 50.2812 136.312 51.2812C137.49 52.2708 138.094 53.6667 138.125 55.4688V63.0938C138.125 64.6146 138.339 65.8281 138.766 66.7344V67H134.891ZM130.719 64.2656C131.469 64.2656 132.172 64.0833 132.828 63.7188C133.495 63.3542 133.995 62.8646 134.328 62.25V59.0625H132.281C130.875 59.0625 129.818 59.3073 129.109 59.7969C128.401 60.2865 128.047 60.9792 128.047 61.875C128.047 62.6042 128.286 63.1875 128.766 63.625C129.255 64.0521 129.906 64.2656 130.719 64.2656ZM150.125 57.75C150.125 55.3438 150.448 53.0625 151.094 50.9062C151.74 48.7396 152.688 46.8073 153.938 45.1094C155.188 43.401 156.51 42.2031 157.906 41.5156L158.656 43.7344C157.188 44.849 155.995 46.5521 155.078 48.8438C154.172 51.125 153.677 53.7396 153.594 56.6875L153.578 58.0312C153.578 61.1875 154.021 64.0052 154.906 66.4844C155.802 68.9531 157.052 70.8333 158.656 72.125L157.906 74.2344C156.51 73.5469 155.182 72.3438 153.922 70.625C152.672 68.9167 151.724 66.9896 151.078 64.8438C150.443 62.6875 150.125 60.3229 150.125 57.75ZM161.594 67V44.25H168.312C170.323 44.25 172.104 44.6979 173.656 45.5938C175.219 46.4896 176.427 47.7604 177.281 49.4062C178.135 51.0521 178.562 52.9375 178.562 55.0625V56.2031C178.562 58.3594 178.13 60.2552 177.266 61.8906C176.411 63.526 175.188 64.7865 173.594 65.6719C172.01 66.5573 170.193 67 168.141 67H161.594ZM165.547 47.4375V63.8438H168.125C170.198 63.8438 171.786 63.1979 172.891 61.9062C174.005 60.6042 174.573 58.7396 174.594 56.3125V55.0469C174.594 52.5781 174.057 50.6927 172.984 49.3906C171.911 48.0885 170.354 47.4375 168.312 47.4375H165.547ZM194.391 61.1406C194.391 60.1406 194.036 59.3698 193.328 58.8281C192.63 58.2865 191.365 57.7396 189.531 57.1875C187.698 56.6354 186.24 56.0208 185.156 55.3438C183.083 54.0417 182.047 52.3438 182.047 50.25C182.047 48.4167 182.792 46.9062 184.281 45.7188C185.781 44.5312 187.724 43.9375 190.109 43.9375C191.693 43.9375 193.104 44.2292 194.344 44.8125C195.583 45.3958 196.557 46.2292 197.266 47.3125C197.974 48.3854 198.328 49.5781 198.328 50.8906H194.391C194.391 49.7031 194.016 48.776 193.266 48.1094C192.526 47.4323 191.464 47.0938 190.078 47.0938C188.786 47.0938 187.781 47.3698 187.062 47.9219C186.354 48.474 186 49.2448 186 50.2344C186 51.0677 186.385 51.7656 187.156 52.3281C187.927 52.8802 189.198 53.4219 190.969 53.9531C192.74 54.474 194.161 55.0729 195.234 55.75C196.307 56.4167 197.094 57.1875 197.594 58.0625C198.094 58.9271 198.344 59.9427 198.344 61.1094C198.344 63.0052 197.615 64.5156 196.156 65.6406C194.708 66.7552 192.74 67.3125 190.25 67.3125C188.604 67.3125 187.089 67.0104 185.703 66.4062C184.328 65.7917 183.255 64.9479 182.484 63.875C181.724 62.8021 181.344 61.5521 181.344 60.125H185.297C185.297 61.4167 185.724 62.4167 186.578 63.125C187.432 63.8333 188.656 64.1875 190.25 64.1875C191.625 64.1875 192.656 63.9115 193.344 63.3594C194.042 62.7969 194.391 62.0573 194.391 61.1406ZM205.984 67H202.047V44.25H205.984V67ZM217.797 58C217.797 60.3125 217.479 62.5469 216.844 64.7031C216.208 66.849 215.245 68.8021 213.953 70.5625C212.661 72.3333 211.312 73.5573 209.906 74.2344L209.156 72.125C210.719 70.9167 211.953 69.0729 212.859 66.5938C213.776 64.1042 214.234 61.2656 214.234 58.0781V57.7188C214.234 54.8229 213.839 52.1875 213.047 49.8125C212.255 47.4271 211.12 45.5156 209.641 44.0781L209.156 43.6406L209.906 41.5156C211.24 42.1615 212.531 43.3073 213.781 44.9531C215.031 46.599 215.99 48.4427 216.656 50.4844C217.323 52.5156 217.698 54.6146 217.781 56.7812L217.797 58Z" fill="#EE4248"/>
</svg>
